<svg width="425" height="471" viewBox="0 0 425 471" fill="none" xmlns="http://www.w3.org/2000/svg">
<rect x="30" y="421.841" width="77" height="33" rx="16.5" fill="url(#paint0_linear_602_40)"/>
<rect width="78" height="33" rx="16.5" transform="matrix(-1 0 0 1 395 421.841)" fill="url(#paint1_linear_602_40)"/>
<path d="M66.819 97.5091V26.6723C66.819 16.8561 78.7013 11.9556 85.6211 18.9181L129.753 63.3227L66.819 97.5091Z" fill="url(#paint2_linear_602_40)"/>
<path d="M66.819 104.502V34.4688C66.819 28.1666 74.4953 25.0741 78.8641 29.6163L115.768 67.9845L66.819 104.502Z" fill="url(#paint3_linear_602_40)"/>
<path d="M66.819 104.502V34.4688C66.819 28.1666 74.4953 25.0741 78.8641 29.6163L115.768 67.9845L66.819 104.502Z" fill="url(#paint4_linear_602_40)"/>
<path d="M358.181 97.5091V26.6723C358.181 16.8561 346.299 11.9556 339.379 18.9181L295.247 63.3227L358.181 97.5091Z" fill="url(#paint5_linear_602_40)"/>
<path d="M358.181 104.502V34.4688C358.181 28.1666 350.505 25.0741 346.136 29.6163L309.232 67.9845L358.181 104.502Z" fill="url(#paint6_linear_602_40)"/>
<path d="M358.181 104.502V34.4688C358.181 28.1666 350.505 25.0741 346.136 29.6163L309.232 67.9845L358.181 104.502Z" fill="url(#paint7_linear_602_40)"/>
<path d="M18.4512 190.054C25.5628 87.9972 110.427 8.84094 212.73 8.84094C315.164 8.84094 400.09 88.192 407.033 190.39L415.206 310.69C420.504 388.671 358.677 454.841 280.517 454.841H144.735C66.4813 454.841 4.62141 388.52 10.0611 310.456L18.4512 190.054Z" fill="url(#paint8_linear_602_40)"/>
<path d="M18.4512 190.054C25.5628 87.9972 110.427 8.84094 212.73 8.84094C315.164 8.84094 400.09 88.192 407.033 190.39L415.206 310.69C420.504 388.671 358.677 454.841 280.517 454.841H144.735C66.4813 454.841 4.62141 388.52 10.0611 310.456L18.4512 190.054Z" fill="url(#paint9_radial_602_40)"/>
<path d="M264.09 460.616C259.004 467.073 251.238 470.841 243.018 470.841C232.931 470.841 224.706 462.754 224.536 452.668L223.212 374.12C223.089 366.855 228.945 360.9 236.21 360.9H297.305C315.675 360.9 325.954 382.084 314.586 396.514L264.09 460.616Z" fill="url(#paint10_linear_602_40)"/>
<path d="M160.133 460.616C165.219 467.073 172.985 470.841 181.205 470.841C191.292 470.841 199.517 462.754 199.687 452.668L201.011 374.12C201.134 366.855 195.278 360.9 188.013 360.9H126.918C108.548 360.9 98.2687 382.084 109.637 396.514L160.133 460.616Z" fill="url(#paint11_linear_602_40)"/>
<g filter="url(#filter0_i_602_40)">
<path d="M59.0427 167.067C65.2056 88.4743 130.78 27.8409 209.614 27.8409H215.386C294.22 27.8409 359.794 88.4743 365.957 167.067L366.192 170.058C370.659 227.032 332.196 278.487 276.288 290.329V290.329C234.229 299.238 190.771 299.238 148.712 290.329V290.329C92.8042 278.487 54.3406 227.032 58.8081 170.059L59.0427 167.067Z" fill="url(#paint12_linear_602_40)"/>
</g>
<g filter="url(#filter1_d_602_40)">
<path fill-rule="evenodd" clip-rule="evenodd" d="M150.5 84.0875C138.21 84.0875 128.247 94.0507 128.247 106.341C128.247 118.631 138.21 128.594 150.5 128.594C162.79 128.594 172.753 118.631 172.753 106.341C172.753 94.0507 162.79 84.0875 150.5 84.0875ZM122 106.341C122 90.6008 134.76 77.8409 150.5 77.8409C166.24 77.8409 179 90.6008 179 106.341C179 122.081 166.24 134.841 150.5 134.841C134.76 134.841 122 122.081 122 106.341Z" fill="#95F9FF"/>
</g>
<g filter="url(#filter2_d_602_40)">
<path fill-rule="evenodd" clip-rule="evenodd" d="M274 84.0875C261.925 84.0875 252.137 94.0507 252.137 106.341C252.137 118.631 261.925 128.594 274 128.594C286.075 128.594 295.863 118.631 295.863 106.341C295.863 94.0507 286.075 84.0875 274 84.0875ZM246 106.341C246 90.6008 258.536 77.8409 274 77.8409C289.464 77.8409 302 90.6008 302 106.341C302 122.081 289.464 134.841 274 134.841C258.536 134.841 246 122.081 246 106.341Z" fill="#95F9FF"/>
</g>
<g filter="url(#filter3_d_602_40)">
<path d="M192 144.841C192 151.468 197.042 156.841 203.262 156.841C206.788 156.841 209.935 155.115 212 152.412C214.065 155.115 217.212 156.841 220.738 156.841C226.958 156.841 232 151.468 232 144.841" stroke="#99F9FF" stroke-width="6" stroke-linecap="round"/>
</g>
<g filter="url(#filter4_d_602_40)">
<path d="M145.293 154.616L127.422 154.616" stroke="#99F9FF" stroke-width="6" stroke-linecap="round"/>
</g>
<g filter="url(#filter5_d_602_40)">
<path d="M144.948 165.494L135.192 168.108" stroke="#99F9FF" stroke-width="6" stroke-linecap="round"/>
</g>
<g filter="url(#filter6_d_602_40)">
<path d="M274.269 154.616L292.139 154.616" stroke="#99F9FF" stroke-width="6" stroke-linecap="round"/>
</g>
<g filter="url(#filter7_d_602_40)">
<path d="M274.613 165.494L284.369 168.108" stroke="#99F9FF" stroke-width="6" stroke-linecap="round"/>
</g>
<defs>
<filter id="filter0_i_602_40" x="58.4558" y="27.8409" width="308.088" height="277.17" filterUnits="userSpaceOnUse" color-interpolation-filters="sRGB">
<feFlood flood-opacity="0" result="BackgroundImageFix"/>
<feBlend mode="normal" in="SourceGraphic" in2="BackgroundImageFix" result="shape"/>
<feColorMatrix in="SourceAlpha" type="matrix" values="0 0 0 0 0 0 0 0 0 0 0 0 0 0 0 0 0 0 127 0" result="hardAlpha"/>
<feOffset dy="8"/>
<feGaussianBlur stdDeviation="5.5"/>
<feComposite in2="hardAlpha" operator="arithmetic" k2="-1" k3="1"/>
<feColorMatrix type="matrix" values="0 0 0 0 0 0 0 0 0 0 0 0 0 0 0 0 0 0 1 0"/>
<feBlend mode="normal" in2="shape" result="effect1_innerShadow_602_40"/>
</filter>
<filter id="filter1_d_602_40" x="89" y="44.8409" width="123" height="123" filterUnits="userSpaceOnUse" color-interpolation-filters="sRGB">
<feFlood flood-opacity="0" result="BackgroundImageFix"/>
<feColorMatrix in="SourceAlpha" type="matrix" values="0 0 0 0 0 0 0 0 0 0 0 0 0 0 0 0 0 0 127 0" result="hardAlpha"/>
<feOffset/>
<feGaussianBlur stdDeviation="16.5"/>
<feComposite in2="hardAlpha" operator="out"/>
<feColorMatrix type="matrix" values="0 0 0 0 0 0 0 0 0 0.88 0 0 0 0 1 0 0 0 0.45 0"/>
<feBlend mode="normal" in2="BackgroundImageFix" result="effect1_dropShadow_602_40"/>
<feBlend mode="normal" in="SourceGraphic" in2="effect1_dropShadow_602_40" result="shape"/>
</filter>
<filter id="filter2_d_602_40" x="213" y="44.8409" width="122" height="123" filterUnits="userSpaceOnUse" color-interpolation-filters="sRGB">
<feFlood flood-opacity="0" result="BackgroundImageFix"/>
<feColorMatrix in="SourceAlpha" type="matrix" values="0 0 0 0 0 0 0 0 0 0 0 0 0 0 0 0 0 0 127 0" result="hardAlpha"/>
<feOffset/>
<feGaussianBlur stdDeviation="16.5"/>
<feComposite in2="hardAlpha" operator="out"/>
<feColorMatrix type="matrix" values="0 0 0 0 0 0 0 0 0 0.88 0 0 0 0 1 0 0 0 0.45 0"/>
<feBlend mode="normal" in2="BackgroundImageFix" result="effect1_dropShadow_602_40"/>
<feBlend mode="normal" in="SourceGraphic" in2="effect1_dropShadow_602_40" result="shape"/>
</filter>
<filter id="filter3_d_602_40" x="183.5" y="136.341" width="57" height="29" filterUnits="userSpaceOnUse" color-interpolation-filters="sRGB">
<feFlood flood-opacity="0" result="BackgroundImageFix"/>
<feColorMatrix in="SourceAlpha" type="matrix" values="0 0 0 0 0 0 0 0 0 0 0 0 0 0 0 0 0 0 127 0" result="hardAlpha"/>
<feOffset/>
<feGaussianBlur stdDeviation="2.75"/>
<feComposite in2="hardAlpha" operator="out"/>
<feColorMatrix type="matrix" values="0 0 0 0 0 0 0 0 0 0.88 0 0 0 0 1 0 0 0 0.25 0"/>
<feBlend mode="normal" in2="BackgroundImageFix" result="effect1_dropShadow_602_40"/>
<feBlend mode="normal" in="SourceGraphic" in2="effect1_dropShadow_602_40" result="shape"/>
</filter>
<filter id="filter4_d_602_40" x="118.922" y="146.116" width="34.8702" height="17" filterUnits="userSpaceOnUse" color-interpolation-filters="sRGB">
<feFlood flood-opacity="0" result="BackgroundImageFix"/>
<feColorMatrix in="SourceAlpha" type="matrix" values="0 0 0 0 0 0 0 0 0 0 0 0 0 0 0 0 0 0 127 0" result="hardAlpha"/>
<feOffset/>
<feGaussianBlur stdDeviation="2.75"/>
<feComposite in2="hardAlpha" operator="out"/>
<feColorMatrix type="matrix" values="0 0 0 0 0 0 0 0 0 0.88 0 0 0 0 1 0 0 0 0.25 0"/>
<feBlend mode="normal" in2="BackgroundImageFix" result="effect1_dropShadow_602_40"/>
<feBlend mode="normal" in="SourceGraphic" in2="effect1_dropShadow_602_40" result="shape"/>
</filter>
<filter id="filter5_d_602_40" x="126.691" y="156.993" width="26.7578" height="19.6157" filterUnits="userSpaceOnUse" color-interpolation-filters="sRGB">
<feFlood flood-opacity="0" result="BackgroundImageFix"/>
<feColorMatrix in="SourceAlpha" type="matrix" values="0 0 0 0 0 0 0 0 0 0 0 0 0 0 0 0 0 0 127 0" result="hardAlpha"/>
<feOffset/>
<feGaussianBlur stdDeviation="2.75"/>
<feComposite in2="hardAlpha" operator="out"/>
<feColorMatrix type="matrix" values="0 0 0 0 0 0 0 0 0 0.88 0 0 0 0 1 0 0 0 0.25 0"/>
<feBlend mode="normal" in2="BackgroundImageFix" result="effect1_dropShadow_602_40"/>
<feBlend mode="normal" in="SourceGraphic" in2="effect1_dropShadow_602_40" result="shape"/>
</filter>
<filter id="filter6_d_602_40" x="265.769" y="146.116" width="34.8702" height="17" filterUnits="userSpaceOnUse" color-interpolation-filters="sRGB">
<feFlood flood-opacity="0" result="BackgroundImageFix"/>
<feColorMatrix in="SourceAlpha" type="matrix" values="0 0 0 0 0 0 0 0 0 0 0 0 0 0 0 0 0 0 127 0" result="hardAlpha"/>
<feOffset/>
<feGaussianBlur stdDeviation="2.75"/>
<feComposite in2="hardAlpha" operator="out"/>
<feColorMatrix type="matrix" values="0 0 0 0 0 0 0 0 0 0.88 0 0 0 0 1 0 0 0 0.25 0"/>
<feBlend mode="normal" in2="BackgroundImageFix" result="effect1_dropShadow_602_40"/>
<feBlend mode="normal" in="SourceGraphic" in2="effect1_dropShadow_602_40" result="shape"/>
</filter>
<filter id="filter7_d_602_40" x="266.112" y="156.993" width="26.7579" height="19.6157" filterUnits="userSpaceOnUse" color-interpolation-filters="sRGB">
<feFlood flood-opacity="0" result="BackgroundImageFix"/>
<feColorMatrix in="SourceAlpha" type="matrix" values="0 0 0 0 0 0 0 0 0 0 0 0 0 0 0 0 0 0 127 0" result="hardAlpha"/>
<feOffset/>
<feGaussianBlur stdDeviation="2.75"/>
<feComposite in2="hardAlpha" operator="out"/>
<feColorMatrix type="matrix" values="0 0 0 0 0 0 0 0 0 0.88 0 0 0 0 1 0 0 0 0.25 0"/>
<feBlend mode="normal" in2="BackgroundImageFix" result="effect1_dropShadow_602_40"/>
<feBlend mode="normal" in="SourceGraphic" in2="effect1_dropShadow_602_40" result="shape"/>
</filter>
<linearGradient id="paint0_linear_602_40" x1="33.85" y1="454.841" x2="61.2597" y2="431.817" gradientUnits="userSpaceOnUse">
<stop stop-color="#F0F0F0"/>
<stop offset="0.212398" stop-color="#E9E9E9"/>
<stop offset="1" stop-color="#B9B9B9"/>
</linearGradient>
<linearGradient id="paint1_linear_602_40" x1="3.9" y1="33" x2="31.3686" y2="9.62672" gradientUnits="userSpaceOnUse">
<stop stop-color="#F0F0F0"/>
<stop offset="0.212398" stop-color="#E9E9E9"/>
<stop offset="1" stop-color="#D1D1D1"/>
</linearGradient>
<linearGradient id="paint2_linear_602_40" x1="66.819" y1="12.4314" x2="102.235" y2="65.6129" gradientUnits="userSpaceOnUse">
<stop stop-color="#EDEDED"/>
<stop offset="0.196189" stop-color="#EEEEEE"/>
<stop offset="0.515916" stop-color="#E9E9E9"/>
<stop offset="1" stop-color="#C8C8C8"/>
</linearGradient>
<linearGradient id="paint3_linear_602_40" x1="101.411" y1="19.7657" x2="58.8711" y2="61.6994" gradientUnits="userSpaceOnUse">
<stop stop-color="#CECECE"/>
<stop offset="1" stop-color="#DBDBDB" stop-opacity="0.56"/>
</linearGradient>
<linearGradient id="paint4_linear_602_40" x1="87.4086" y1="17.0932" x2="87.4086" y2="72.9078" gradientUnits="userSpaceOnUse">
<stop stop-color="#494949"/>
<stop offset="1" stop-color="#161616"/>
</linearGradient>
<linearGradient id="paint5_linear_602_40" x1="358.181" y1="12.4314" x2="322.765" y2="65.6129" gradientUnits="userSpaceOnUse">
<stop stop-color="#EDEDED"/>
<stop offset="0.196189" stop-color="#EEEEEE"/>
<stop offset="0.515916" stop-color="#E9E9E9"/>
<stop offset="1" stop-color="#C8C8C8"/>
</linearGradient>
<linearGradient id="paint6_linear_602_40" x1="323.589" y1="19.7657" x2="366.129" y2="61.6994" gradientUnits="userSpaceOnUse">
<stop stop-color="#CECECE"/>
<stop offset="1" stop-color="#DBDBDB" stop-opacity="0.56"/>
</linearGradient>
<linearGradient id="paint7_linear_602_40" x1="337.591" y1="17.0932" x2="337.591" y2="72.9078" gradientUnits="userSpaceOnUse">
<stop stop-color="#494949"/>
<stop offset="1" stop-color="#161616"/>
</linearGradient>
<linearGradient id="paint8_linear_602_40" x1="64.4881" y1="27.3921" x2="76.5085" y2="421.548" gradientUnits="userSpaceOnUse">
<stop stop-color="#F0F0F0"/>
<stop offset="1" stop-color="#E6E6E6"/>
</linearGradient>
<radialGradient id="paint9_radial_602_40" cx="0" cy="0" r="1" gradientUnits="userSpaceOnUse" gradientTransform="translate(212.5 454.841) rotate(90) scale(40.7927 134.548)">
<stop stop-opacity="0.34"/>
<stop offset="1" stop-opacity="0"/>
</radialGradient>
<linearGradient id="paint10_linear_602_40" x1="252.647" y1="469.29" x2="250.349" y2="395.158" gradientUnits="userSpaceOnUse">
<stop stop-color="#EAEAEA"/>
<stop offset="0.574043" stop-color="#EAEAEA"/>
<stop offset="1" stop-color="#E7E7E7"/>
</linearGradient>
<linearGradient id="paint11_linear_602_40" x1="171.576" y1="469.29" x2="173.874" y2="395.158" gradientUnits="userSpaceOnUse">
<stop stop-color="#EAEAEA"/>
<stop offset="0.574043" stop-color="#EAEAEA"/>
<stop offset="1" stop-color="#E7E7E7"/>
</linearGradient>
<linearGradient id="paint12_linear_602_40" x1="212.5" y1="27.8409" x2="212.5" y2="269.633" gradientUnits="userSpaceOnUse">
<stop stop-color="#494949"/>
<stop offset="1" stop-color="#161616"/>
</linearGradient>
</defs>
</svg>
