<svg width="116" height="117" viewBox="0 0 116 117" fill="none" xmlns="http://www.w3.org/2000/svg">
<ellipse cx="57.7931" cy="58.2144" rx="57.7931" ry="58.2144" fill="url(#paint0_linear_5_156)"/>
<mask id="path-2-inside-1_5_156" fill="white">
<path fill-rule="evenodd" clip-rule="evenodd" d="M57.7931 67.5262C54.356 74.4884 47.1848 79.2773 38.895 79.2773C27.2623 79.2773 17.8321 69.8471 17.8321 58.2144C17.8321 46.5817 27.2623 37.1515 38.895 37.1515C47.1848 37.1515 54.356 41.9404 57.7931 48.9026C61.2302 41.9404 68.4014 37.1515 76.6911 37.1515C88.3239 37.1515 97.754 46.5817 97.754 58.2144C97.754 69.8471 88.3239 79.2773 76.6911 79.2773C68.4014 79.2773 61.2302 74.4884 57.7931 67.5262Z"/>
</mask>
<path fill-rule="evenodd" clip-rule="evenodd" d="M57.7931 67.5262C54.356 74.4884 47.1848 79.2773 38.895 79.2773C27.2623 79.2773 17.8321 69.8471 17.8321 58.2144C17.8321 46.5817 27.2623 37.1515 38.895 37.1515C47.1848 37.1515 54.356 41.9404 57.7931 48.9026C61.2302 41.9404 68.4014 37.1515 76.6911 37.1515C88.3239 37.1515 97.754 46.5817 97.754 58.2144C97.754 69.8471 88.3239 79.2773 76.6911 79.2773C68.4014 79.2773 61.2302 74.4884 57.7931 67.5262Z" fill="url(#paint1_linear_5_156)"/>
<path d="M57.7931 67.5262L66.0514 63.4492L57.7931 46.721L49.5348 63.4492L57.7931 67.5262ZM57.7931 48.9026L49.5348 52.9796L57.7931 69.7078L66.0514 52.9796L57.7931 48.9026ZM49.5348 63.4492C47.5896 67.3894 43.5465 70.0675 38.895 70.0675V88.4872C50.823 88.4872 61.1224 81.5874 66.0514 71.6031L49.5348 63.4492ZM38.895 70.0675C32.3488 70.0675 27.042 64.7607 27.042 58.2144H8.62228C8.62228 74.9336 22.1759 88.4872 38.895 88.4872V70.0675ZM27.042 58.2144C27.042 51.6681 32.3488 46.3613 38.895 46.3613V27.9416C22.1759 27.9416 8.62228 41.4952 8.62228 58.2144H27.042ZM38.895 46.3613C43.5465 46.3613 47.5896 49.0394 49.5348 52.9796L66.0514 44.8257C61.1224 34.8414 50.823 27.9416 38.895 27.9416V46.3613ZM66.0514 52.9796C67.9966 49.0394 72.0397 46.3613 76.6911 46.3613V27.9416C64.7631 27.9416 54.4638 34.8414 49.5348 44.8257L66.0514 52.9796ZM76.6911 46.3613C83.2374 46.3613 88.5442 51.6681 88.5442 58.2144H106.964C106.964 41.4952 93.4103 27.9416 76.6911 27.9416V46.3613ZM88.5442 58.2144C88.5442 64.7607 83.2374 70.0675 76.6911 70.0675V88.4872C93.4103 88.4872 106.964 74.9336 106.964 58.2144H88.5442ZM76.6911 70.0675C72.0397 70.0675 67.9966 67.3894 66.0514 63.4492L49.5348 71.6031C54.4638 81.5874 64.7631 88.4872 76.6911 88.4872V70.0675Z" fill="white" mask="url(#path-2-inside-1_5_156)"/>
<defs>
<linearGradient id="paint0_linear_5_156" x1="57.7931" y1="0" x2="57.7931" y2="116.429" gradientUnits="userSpaceOnUse">
<stop stop-color="#B830E2"/>
<stop offset="1" stop-color="#040211"/>
</linearGradient>
<linearGradient id="paint1_linear_5_156" x1="57.7931" y1="37.1515" x2="57.7931" y2="79.2773" gradientUnits="userSpaceOnUse">
<stop stop-color="#B830E2"/>
<stop offset="1" stop-color="#040211"/>
</linearGradient>
</defs>
</svg>
